<mxfile host="Electron" modified="2024-08-21T14:50:44.140Z" agent="Mozilla/5.0 (Windows NT 10.0; Win64; x64) AppleWebKit/537.36 (KHTML, like Gecko) draw.io/22.1.2 Chrome/114.0.5735.289 Electron/25.9.4 Safari/537.36" version="22.1.2" etag="QZg5R1eyVQb-DEi48Y8M" type="device" pages="3">
  <diagram name="第 1 页" id="w4tSB4O6FbDPdPmDM6Hp">
    <mxGraphModel dx="804" dy="674" grid="1" gridSize="10" guides="1" tooltips="1" connect="1" arrows="1" fold="1" page="1" pageScale="1" pageWidth="827" pageHeight="1169" math="0" shadow="0">
      <root>
        <mxCell id="0" />
        <mxCell id="1" parent="0" />
        <mxCell id="nIAIfp6roelTSrdBB35e-25" value="" style="rounded=1;whiteSpace=wrap;html=1;fontSize=16;fillColor=none;strokeWidth=2;arcSize=7;" parent="1" vertex="1">
          <mxGeometry x="260" y="300" width="160" height="140" as="geometry" />
        </mxCell>
        <mxCell id="nIAIfp6roelTSrdBB35e-1" value="" style="shape=image;verticalLabelPosition=bottom;labelBackgroundColor=default;verticalAlign=top;aspect=fixed;imageAspect=0;image=data:image/svg+xml,PHN2ZyB4bWxucz0iaHR0cDovL3d3dy53My5vcmcvMjAwMC9zdmciIHZlcnNpb249IjEuMSIgaGVpZ2h0PSIxMDI0IiB3aWR0aD0iMTAyNCIgdmlld0JveD0iMCAwIDEwMjQgMTAyNCI+JiN4YTsgPGcgY2xhc3M9ImxheWVyIj4mI3hhOyAgPHRpdGxlPkxheWVyIDE8L3RpdGxlPiYjeGE7ICA8cmVjdCB5PSIzMzIuNCIgeD0iMjkyLjc5IiB3aWR0aD0iMTAuMiIgdHJhbnNmb3JtPSJyb3RhdGUoMjAuNiAyOTcuODkgMzYwLjg2KSIgc3R5bGU9Ii0tZGFya3JlYWRlci1pbmxpbmUtZmlsbDogIzM4M2Q0MTsiIHJ4PSI1LjAxIiBpZD0ic3ZnXzIiIGhlaWdodD0iNTYuOTIiIGZpbGw9IiMzNTQ5NWYiLz4mI3hhOyAgPHJlY3QgeT0iMzM0Ljg4IiB4PSIyNDQuMiIgd2lkdGg9IjkuODQiIHRyYW5zZm9ybT0icm90YXRlKC0wLjIgMjQ5LjEyIDM1NC4xNikiIHN0eWxlPSItLWRhcmtyZWFkZXItaW5saW5lLWZpbGw6ICMzODNkNDE7IiByeD0iNC43OCIgaWQ9InN2Z18zIiBoZWlnaHQ9IjM4LjU2IiBmaWxsPSIjMzU0OTVmIi8+JiN4YTsgIDxyZWN0IHk9IjM4MC4yMyIgeD0iMzExLjUxIiB3aWR0aD0iNTYuMjYiIHRyYW5zZm9ybT0icm90YXRlKC0zNi4xIDMzOS42NCAzODUuNDMpIiBzdHlsZT0iLS1kYXJrcmVhZGVyLWlubGluZS1maWxsOiAjMzgzZDQxOyIgcng9IjUuMTEiIGlkPSJzdmdfNCIgaGVpZ2h0PSIxMC40IiBmaWxsPSIjMzU0OTVmIi8+JiN4YTsgIDxwYXRoIHN0eWxlPSItLWRhcmtyZWFkZXItaW5saW5lLWZpbGw6ICMzODNkNDE7IiBpZD0ic3ZnXzUiIGZpbGw9IiMzNTQ5NWYiIGQ9Im0xNjMuMyw1NTEuOThsMC4wNiwtMTEzbDAuMTUsLTAuN2wwLjcsLTAuNzNsODQuMjQsLTQ2LjEybDAuNzgsLTAuMmwwLjc4LDAuMTlsODUuNDYsNDYuMTVsMC4xNiwwLjA5bDAuNTEsMC41OGwwLjE5LDAuNzZsMC4wNiwxMTIuMDhsLTAuMjMsMC44M2wtMC42MiwwLjZsLTg2LjEzLDQ2LjYzbC0wLjY1LDAuMTlsLTAuOTEsLTAuMTlsLTgzLjcsLTQ1LjczbC0wLjYyLC0wLjZsLTAuMjMsLTAuODN6bTg1Ljg5LC03My4xbDAuMzgsMGw2Ny41NywtMzYuNTVsMC4yLC0wLjMxbC0wLjIxLC0wLjM5bC02Ny43MSwtMzYuMjZsLTAuMzgsMGwtNjYuNjEsMzYuNTRsLTAuMDgsMC4wNmwtMC4xMiwwLjM0bDAuMiwwLjNsNjYuNzYsMzYuMjd6bTYuNTcsMTAuODRsLTAuMTgsMC4zbC0wLjAyLDkxLjE5bDAuMTcsMC4yOWwwLjMzLDAuMDFsMCwwbDAsMGw2Ny43MSwtMzYuNjNsMC4xOCwtMC4zbDAuMDIsLTkxLjJsLTAuMDQsLTAuMTdsLTAuNDYsLTAuMTNsLTY3LjcxLDM2LjY0em0tMTMuMyw5Mi4wOGwwLjI0LDAuMDVsMC4yNywtMC4xM2wwLjExLC0wLjI5bC0wLjE1LC05MS42NmwtMC4yMiwtMC4zN2wtNjYuMzgsLTM1LjlsLTAuNTIsMC4xbC0wLjEsMC4yN2wwLjE1LDkxLjY2bDAuMjIsMC4zN2w2Ni4zOCwzNS45eiIvPiYjeGE7ICA8cGF0aCBzdHlsZT0iLS1kYXJrcmVhZGVyLWlubGluZS1maWxsOiAjMzgzZDQxOyIgaWQ9InN2Z183IiBmaWxsPSIjMzU0OTVmIiBkPSJtNzQ2LjU0LDQzNi43N2w0Ljc1LC0yLjg0bDQuODUsLTIuNDJsNC45NywtMmw1LjA5LC0xLjU4bDAsMGwwLDBsMCwwbDYuNjYsLTEuNDJsNi44NiwtMC43M2w3LjAzLC0wLjA1bDcuMjIsMC42M2w1LjQ0LDEuMDFsNS40NywxLjU3bDUuNDcsMi4xM2w1LjUsMi42OWwzLjgzLDIuMjRsMy42MSwyLjQ1bDQuMjgsMy40MWwzLjk0LDMuNzFsMy42OSw0LjA5bDMuMzQsNC4zNmwzLjA4LDQuNzZsMi43Miw0Ljk5bDIuMzksNS4zMWwyLjAxLDUuNDhsMS42Nyw1Ljc5bDEuMjgsNS45MmwwLjksNi4xbDAuNSw2LjE2bDAuMSw2LjIzbC0wLjMxLDYuMjFsLTAuNyw2LjE2bC0xLjA5LDYuMDdsLTEuMDUsNC4zbC0xLjI4LDQuMTlsLTEuNDksNC4wNmwtMS43MiwzLjk0bC0xLjk1LDMuODZsLTIuMTYsMy43MWwtMi4zNSwzLjU1bC0yLjU1LDMuMzhsLTIuNzUsMy4yM2wtMi45MywzLjA1bC0zLjEsMi44NmwtMy4yNywyLjY2bC0zLjM4LDIuNDNsLTMuNTMsMi4yMWwtMy42OCwybC0zLjgsMS43N2wtNi4zNywyLjM1bC02LjY2LDEuNzFsLTYuNzksMS4wM2wtNy4wMSwwLjM2bC01LjgzLC0wLjJsLTUuNjcsLTAuNjNsLTUuNTksLTEuMDZsLTUuNCwtMS40OGwtNS4yLC0xLjlsLTQuOTcsLTIuM2wtNC43MiwtMi42OWwtNC40NywtMy4wOGwtMy45LC0zLjE4bC0zLjY1LC0zLjVsLTMuMzksLTMuODFsLTMuMTIsLTQuMWwtMi44MiwtNC4zNmwtMi41MiwtNC42NGwtMi4xOCwtNC44MWwtMS44OCwtNS4wN2wtMS44NCwtNi4zM2wtMS4zOCwtNi40OGwtMC45MywtNi42bC0wLjQ2LC02LjY4bDAsLTYuN2wwLjQ4LC02LjY4bDAuOTQsLTYuNTJsMS40LC02LjQybDEuODIsLTYuMTJsMi4yOCwtNS45M2wyLjY2LC01LjYxbDMuMTEsLTUuMzZsMy40MiwtNC45M2wzLjg0LC00LjYzbDQuMTYsLTQuMmw0LjU1LC0zLjg3bDQuNTMsLTMuMjF6bTM1LjI5LDEzMC4xOGwzLjg4LC0wLjA0bDMuNzcsLTAuMjdsMy43NiwtMC41MmwzLjYzLC0wLjc1bDMuNTMsLTAuOThsMy4zOSwtMS4ybDMuMzYsLTEuNDVsMy4yMSwtMS42NmwyLjk1LC0xLjhsMi44MiwtMS45OGwyLjY3LC0yLjE2bDIuNTMsLTIuMzNsMi40MiwtMi41M2wyLjI2LC0yLjY5bDIuMSwtMi44NGwxLjk0LC0yLjk5bDEuNzgsLTMuMTNsMS42MSwtMy4yN2wxLjQzLC0zLjM4bDEuMjUsLTMuNWwxLjA3LC0zLjYxbDAuODksLTMuN2wwLjY5LC0zLjc5bDAuNTEsLTMuODhsMC40NywtNi44MmwtMC4wNCwtNi42MWwtMC41NCwtNi41NWwtMS4wNCwtNi4yNmwtMS41MywtNi4wNWwtMiwtNS43bC0yLjUyLC01LjUxbC0yLjk1LC01LjEzbC0yLjA2LC0zLjAybC0yLjIzLC0yLjg0bC0yLjM3LC0yLjY3bC0yLjUyLC0yLjQ4bC0yLjY1LC0yLjNsLTIuNzksLTIuMTJsLTIuOTEsLTEuOTFsLTMuMDMsLTEuNzJsLTUuNjUsLTIuNTVsLTUuOTYsLTEuODhsLTYuMTUsLTEuMThsLTYuMzgsLTAuNDhsLTYuNCwwLjIybC02LjE5LDAuOTNsLTYuMDQsMS42NGwtNS43NSwyLjMybC0zLjA5LDEuNTlsLTIuOTksMS44bC0yLjg3LDJsLTIuNzUsMi4xOWwtMi42MSwyLjM4bC0yLjQ4LDIuNTdsLTIuMzMsMi43NWwtMi4xOSwyLjkzbC0zLjE2LDVsLTIuNzQsNS40MWwtMi4yMiw1LjYybC0xLjc4LDUuOThsLTEuMjksNi4yMWwtMC44LDYuNTJsLTAuMzEsNi42bDAuMTksNi44NGwwLjM1LDMuODlsMC41NCwzLjgybDAuNzQsMy43NGwwLjkyLDMuNjRsMS4xMSwzLjU1bDEuMywzLjQ0bDEuNDcsMy4zM2wxLjY1LDMuMmwxLjgxLDMuMDZsMS45OSwyLjkzbDIuMTUsMi43OGwyLjMxLDIuNjJsMi40MywyLjQzbDIuNTksMi4yN2wyLjczLDIuMDlsMi44OCwxLjkybDMuMTQsMS43OWwzLjMsMS41OWwzLjM0LDEuMzNsMy40OCwxLjEybDMuNjEsMC45bDMuNzMsMC42N2wzLjc2LDAuNDNsMy44NywwLjE5eiIvPiYjeGE7ICA8cGF0aCBzdHlsZT0iLS1kYXJrcmVhZGVyLWlubGluZS1maWxsOiAjMzgzZDQxOyIgaWQ9InN2Z184IiBmaWxsPSIjMzU0OTVmIiBkPSJtNDA1Ljc4LDUxMS4xMWwtMC41OCwwLjQ5bC0wLjE2LDAuNzVsMC45NSw1Ljc2bDEuNCw1LjU2bDEuODUsNS4zMmwyLjI4LDUuMDZsMi43MSw0Ljc5bDMuMTMsNC40OGwzLjUyLDQuMTVsMy45MiwzLjc5bDQuMzMsMy40NGw0LjY5LDMuMDNsNC45NywyLjU1bDUuMzEsMi4xMmw1LjE0LDEuNThsNS4xNiwxLjJsNS4xNywwLjgybDUuMiwwLjQzbDAsMGwwLDBsMCwwbDAsMGw0LjIzLDAuMDdsNC4yNCwtMC4xOGw0LjI1LC0wLjQzbDQuMjYsLTAuNjhsNi4wMywtMS40MWw1Ljc0LC0xLjlsNS40MywtMi4zN2w1LjEzLC0yLjg2bDAsMGw0LjcxLC0zLjI2bDQuNDMsLTMuNzJsNC4xNSwtNC4xOGwzLjg1LC00LjY0bDAuNzUsLTAuNTlsMC45MywtMC4xNWwzLjIsMC43NGwzLjAxLDEuMzJsMS4wMywwLjcxbDAuODIsMC44bDAuNTEsMC44bDAuMjMsMC44OGwtMC4xLDAuOTZsLTAuNDgsMS4wNGwtMy40OCw0Ljc4bC00LjE2LDQuNTdsLTUuOTgsNS40NGwtNi4yOCw0LjdsLTYuNTgsMy45NmwtMy40LDEuN2wtMy40OCwxLjUxbDAsMGwwLDBsLTYuMjEsMi4xOGwtNi40NCwxLjYybC02LjY3LDEuMDVsLTYuODksMC41bC03Ljc2LC0wLjA5bC03LjY4LC0wLjc1bC03LjQ1LC0xLjQxbC03LjI3LC0yLjA3bC02Ljg0LC0yLjY1bC02LjU2LC0zLjNsLTYuMTYsLTMuOWwtNS42MywtNC40bC0xLjg4LC0xLjY5bC0zLjk4LC00LjA1bC0zLjU5LC00LjMzbC0zLjI3LC00LjY3bC0yLjg3LC00LjkxbC0yLjUyLC01LjI2bC0yLjEsLTUuNDNsLTEuNzEsLTUuNjlsLTEuMjcsLTUuOGwtMC44NCwtNi4wMWwtMC40LC02LjA3bDAuMDQsLTYuMDhsMC40OSwtNi4wN2wwLjkzLC02LjAybDEuMzcsLTUuOTNsMS43NywtNS43MmwyLjE5LC01LjU2bDIuNTUsLTUuMjhsMi44OSwtNC45OWwzLjIyLC00LjdsMy41NiwtNC40bDAsMGw0LjczLC00LjlsNS4yMSwtNC40OGw1LjcsLTQuMDVsNi4xOSwtMy42Mmw0LjA0LC0xLjk5bDQuMTQsLTEuNzVsNC4yMSwtMS41MWw0LjI3LC0xLjI2bDQuMzksLTEuMDNsNC40MywtMC43N2w0LjQ2LC0wLjUzbDQuNDcsLTAuMjdsNC40OCwtMC4wM2w0LjQ3LDAuMjNsNC40NSwwLjQ5bDQuNDIsMC43M2w0LjMyLDAuOTdsNC4yNywxLjIybDQuMiwxLjQ3bDQuMTIsMS43MWw1LjEsMi41M2w0Ljc3LDIuODVsNC41NCwzLjIybDQuMjEsMy41MmwyLjg3LDIuNzVsMi42OSwyLjg5bDIuNTcsMy4xbDIuMzksMy4yNGwyLjIsMy4zNmwyLjAyLDMuNDhsMS44OCwzLjY5bDEuNjksMy43OWwxLjUyLDMuOTVsMS4zMiw0LjA1bDEuMTIsNC4xM2wwLjkzLDQuMjJsMC43NSw0LjM0bDAuNTQsNC40bDAuNSw4Ljk2bC0wLjA3LDIuMjFsLTAuMjcsMS44bC0wLjI3LDAuNjVsLTAuNDcsMC41M2wtMC42MiwwLjM0bC0wLjcsMC4xMWwtOTYuOTQsLTAuMTJsLTM4Ljc1LDAuMWwtMS40OSwwLjIzem0yMS40MiwtNTcuMWwtMy40MSwzLjEzbC0zLjE1LDMuMzFsLTIuODcsMy40OWwtMi42LDMuNjdsMCwwbDAsMGwtMy4xNiw1LjRsLTIuNjMsNS43NGwtMi4xMSw2LjA5bC0xLjU4LDYuNDNsLTAuNSwzLjIybC0wLjE5LDMuMDJsMC4yLDAuNTFsMC41MSwwLjIxbDAsMGwwLDBsMTI0LjUzLDAuMDFsMCwwbDAuNzMsLTAuMTVsMC42MiwtMC40MWwwLjQxLC0wLjYybDAuMTQsLTAuNzNsLTAuMjcsLTMuMjhsLTAuODEsLTQuMjlsLTAuMzEsLTEuNTFsLTEuNTgsLTYuMjdsLTIuMTMsLTUuODdsLTIuNjgsLTUuNDlsLTMuMjIsLTUuMWwtMy4wOCwtMy45MWwtMy40NCwtMy42NWwtMy44MywtMy4zOGwtNC4xOSwtMy4xMmwtNC40OCwtMi43OGwtNC42OSwtMi4zOWwtNC45NywtMi4wNGwtNS4xMywtMS42NGwtNS4yOCwtMS4yM2wtNS4zOCwtMC44MWwtNS40MiwtMC40bC01LjQ0LDAuMDNsLTUuMzksMC40NWwtNS4zMywwLjg4bC01LjE1LDEuMjhsLTUuMDQsMS43bC00Ljc2LDIuMDZsLTQuNTgsMi40NmwtNC4yOSwyLjc5bC00LjA3LDMuMTl6Ii8+JiN4YTsgIDxwYXRoIGlkPSJzdmdfOSIgZmlsbD0iIzM1NDk1ZiIgZD0ibTYyNC4wNCw1NTcuMzFsMS4yMiwtMi4wMWw1OC42LC0xMjMuMzNsMC40NCwtMC42OGwwLjYsLTAuNTRsMC43MSwtMC4zNmwwLjc5LC0wLjE3bDUuMDIsLTAuMThsNS40OCwwLjI0bDAuOCwwLjI2bDAuNTcsMC41OWwwLjA4LDAuNTlsLTAuMjksMC44NGwtNTAuNDIsMTAzLjU3bC05LjYxLDIwLjA4bC05LjMxLDIwLjAzbC0wLjc3LDEuMjFsLTEsMC43NWwwLDBsLTAuNDIsMC4xNWwtMi4zOSwwLjQ1bC0yLjIsLTAuMDNsLTEuNzIsLTAuNDlsLTEuMjQsLTAuOTFsLTAuNjMsLTAuOTRsLTU5LjkyLC0xMjUuNTNsLTcuNTQsLTE1Ljc3bC0xLjExLC0yLjg1bC0wLjAyLC0wLjFsMC4wMiwtMC42NGwwLjI3LC0wLjU5bDAuNDgsLTAuNDNsMC42MiwtMC4ybDQuMywtMC4yOGw1LjAzLDAuMDNsMS4wMywwLjE1bDAuODcsMC4zNGwxLjE2LDAuOTdsMC45NSwxLjU1bDI2LjgxLDU3Ljk0bDI5LjI3LDYxLjY0bDIuNTEsNC42MWwwLjQxLDAuMjhsMC40NywtMC4xNGwwLjA4LC0wLjF6Ii8+JiN4YTsgPC9nPiYjeGE7PC9zdmc+;" parent="1" vertex="1">
          <mxGeometry x="260" y="294" width="160" height="160" as="geometry" />
        </mxCell>
        <mxCell id="nIAIfp6roelTSrdBB35e-3" value="&lt;font style=&quot;font-size: 18px;&quot; face=&quot;Verdana&quot;&gt;C&lt;/font&gt;" style="rounded=1;whiteSpace=wrap;html=1;fontSize=16;fillColor=none;strokeWidth=2;" parent="1" vertex="1">
          <mxGeometry x="120" y="200" width="120" height="60" as="geometry" />
        </mxCell>
        <mxCell id="nIAIfp6roelTSrdBB35e-4" value="&lt;font style=&quot;font-size: 18px;&quot; face=&quot;Verdana&quot;&gt;C++&lt;/font&gt;" style="rounded=1;whiteSpace=wrap;html=1;fontSize=16;fillColor=none;strokeWidth=2;" parent="1" vertex="1">
          <mxGeometry x="280" y="200" width="120" height="60" as="geometry" />
        </mxCell>
        <mxCell id="nIAIfp6roelTSrdBB35e-5" value="&lt;font style=&quot;font-size: 18px;&quot; face=&quot;Verdana&quot;&gt;Python&lt;/font&gt;" style="rounded=1;whiteSpace=wrap;html=1;fontSize=16;fillColor=none;strokeWidth=2;" parent="1" vertex="1">
          <mxGeometry x="440" y="200" width="120" height="60" as="geometry" />
        </mxCell>
        <mxCell id="nIAIfp6roelTSrdBB35e-6" value="" style="endArrow=none;html=1;rounded=0;fontSize=12;startSize=8;endSize=8;curved=1;strokeWidth=2;" parent="1" edge="1">
          <mxGeometry width="50" height="50" relative="1" as="geometry">
            <mxPoint x="120" y="280" as="sourcePoint" />
            <mxPoint x="560" y="280" as="targetPoint" />
          </mxGeometry>
        </mxCell>
        <mxCell id="nIAIfp6roelTSrdBB35e-7" value="" style="endArrow=none;html=1;rounded=0;fontSize=12;startSize=8;endSize=8;curved=1;strokeWidth=2;dashed=1;" parent="1" edge="1">
          <mxGeometry width="50" height="50" relative="1" as="geometry">
            <mxPoint x="120" y="180" as="sourcePoint" />
            <mxPoint x="560" y="180" as="targetPoint" />
          </mxGeometry>
        </mxCell>
        <mxCell id="nIAIfp6roelTSrdBB35e-8" value="&lt;font style=&quot;font-size: 18px;&quot; face=&quot;Verdana&quot;&gt;edb&lt;/font&gt;" style="rounded=1;whiteSpace=wrap;html=1;fontSize=16;fillColor=none;strokeWidth=2;" parent="1" vertex="1">
          <mxGeometry x="440" y="100" width="120" height="60" as="geometry" />
        </mxCell>
        <mxCell id="nIAIfp6roelTSrdBB35e-9" value="" style="endArrow=none;html=1;rounded=1;fontSize=12;startSize=8;endSize=8;strokeWidth=2;edgeStyle=orthogonalEdgeStyle;" parent="1" edge="1">
          <mxGeometry width="50" height="50" relative="1" as="geometry">
            <mxPoint x="20" y="300" as="sourcePoint" />
            <mxPoint x="100" y="340" as="targetPoint" />
            <Array as="points">
              <mxPoint x="80" y="300" />
              <mxPoint x="80" y="340" />
              <mxPoint x="100" y="340" />
            </Array>
          </mxGeometry>
        </mxCell>
        <mxCell id="nIAIfp6roelTSrdBB35e-10" value="&lt;font color=&quot;#10739a&quot; style=&quot;font-size: 18px;&quot; face=&quot;Verdana&quot;&gt;Load&lt;/font&gt;" style="rounded=1;whiteSpace=wrap;html=1;fontSize=16;fillColor=none;strokeWidth=2;strokeColor=#10739e;" parent="1" vertex="1">
          <mxGeometry x="120" y="300" width="120" height="60" as="geometry" />
        </mxCell>
        <mxCell id="nIAIfp6roelTSrdBB35e-11" value="&lt;font color=&quot;#10739a&quot; style=&quot;font-size: 18px;&quot; face=&quot;Verdana&quot;&gt;Convert&lt;/font&gt;" style="rounded=1;whiteSpace=wrap;html=1;fontSize=16;fillColor=none;strokeWidth=2;strokeColor=#10739e;" parent="1" vertex="1">
          <mxGeometry x="120" y="380" width="120" height="60" as="geometry" />
        </mxCell>
        <mxCell id="nIAIfp6roelTSrdBB35e-12" value="&lt;font color=&quot;#9673a6&quot; style=&quot;font-size: 18px;&quot; face=&quot;Verdana&quot;&gt;Compress&lt;/font&gt;" style="rounded=1;whiteSpace=wrap;html=1;fontSize=16;fillColor=none;strokeWidth=2;strokeColor=#9673a6;" parent="1" vertex="1">
          <mxGeometry x="440" y="300" width="120" height="60" as="geometry" />
        </mxCell>
        <mxCell id="nIAIfp6roelTSrdBB35e-13" value="" style="endArrow=none;html=1;rounded=1;fontSize=12;startSize=8;endSize=8;strokeWidth=2;edgeStyle=orthogonalEdgeStyle;" parent="1" edge="1">
          <mxGeometry width="50" height="50" relative="1" as="geometry">
            <mxPoint x="20" y="440" as="sourcePoint" />
            <mxPoint x="100" y="400" as="targetPoint" />
            <Array as="points">
              <mxPoint x="80" y="440" />
              <mxPoint x="80" y="400" />
              <mxPoint x="100" y="400" />
            </Array>
          </mxGeometry>
        </mxCell>
        <mxCell id="nIAIfp6roelTSrdBB35e-14" value="&lt;font style=&quot;font-size: 18px;&quot; face=&quot;Verdana&quot;&gt;GPU&lt;/font&gt;" style="rounded=1;whiteSpace=wrap;html=1;fontSize=16;fillColor=none;strokeWidth=2;" parent="1" vertex="1">
          <mxGeometry x="120" y="560" width="120" height="60" as="geometry" />
        </mxCell>
        <mxCell id="nIAIfp6roelTSrdBB35e-15" value="&lt;font style=&quot;font-size: 18px;&quot; face=&quot;Verdana&quot;&gt;NPU&lt;/font&gt;" style="rounded=1;whiteSpace=wrap;html=1;fontSize=16;fillColor=none;strokeWidth=2;" parent="1" vertex="1">
          <mxGeometry x="280" y="560" width="120" height="60" as="geometry" />
        </mxCell>
        <mxCell id="nIAIfp6roelTSrdBB35e-16" value="&lt;font style=&quot;font-size: 18px;&quot; face=&quot;Verdana&quot;&gt;CPU&lt;/font&gt;" style="rounded=1;whiteSpace=wrap;html=1;fontSize=16;fillColor=none;strokeWidth=2;" parent="1" vertex="1">
          <mxGeometry x="440" y="560" width="120" height="60" as="geometry" />
        </mxCell>
        <mxCell id="nIAIfp6roelTSrdBB35e-17" value="" style="endArrow=none;html=1;rounded=0;fontSize=12;startSize=8;endSize=8;curved=1;strokeWidth=2;" parent="1" edge="1">
          <mxGeometry width="50" height="50" relative="1" as="geometry">
            <mxPoint x="120" y="540" as="sourcePoint" />
            <mxPoint x="560" y="540" as="targetPoint" />
          </mxGeometry>
        </mxCell>
        <mxCell id="nIAIfp6roelTSrdBB35e-18" value="&lt;font color=&quot;#b35b64&quot; style=&quot;font-size: 18px;&quot; face=&quot;Verdana&quot;&gt;Run Time&lt;/font&gt;" style="rounded=1;whiteSpace=wrap;html=1;fontSize=16;fillColor=none;strokeWidth=2;strokeColor=#b85450;" parent="1" vertex="1">
          <mxGeometry x="120" y="460" width="300" height="60" as="geometry" />
        </mxCell>
        <mxCell id="nIAIfp6roelTSrdBB35e-19" value="&lt;font&gt;&lt;span style=&quot;font-size: 18px;&quot;&gt;onnx&lt;/span&gt;&lt;/font&gt;" style="text;html=1;strokeColor=none;fillColor=none;align=center;verticalAlign=middle;whiteSpace=wrap;rounded=0;fontSize=16;fontFamily=Verdana;" parent="1" vertex="1">
          <mxGeometry x="10" y="315" width="60" height="30" as="geometry" />
        </mxCell>
        <mxCell id="nIAIfp6roelTSrdBB35e-20" value="&lt;font&gt;&lt;span style=&quot;font-size: 18px;&quot;&gt;tflite&lt;/span&gt;&lt;/font&gt;" style="text;html=1;strokeColor=none;fillColor=none;align=center;verticalAlign=middle;whiteSpace=wrap;rounded=0;fontSize=16;fontFamily=Verdana;" parent="1" vertex="1">
          <mxGeometry x="10" y="359" width="60" height="30" as="geometry" />
        </mxCell>
        <mxCell id="nIAIfp6roelTSrdBB35e-22" value="&lt;font&gt;&lt;span style=&quot;font-size: 18px;&quot;&gt;...&lt;/span&gt;&lt;/font&gt;" style="text;html=1;strokeColor=none;fillColor=none;align=center;verticalAlign=middle;whiteSpace=wrap;rounded=0;fontSize=16;fontFamily=Verdana;" parent="1" vertex="1">
          <mxGeometry x="10" y="398" width="60" height="30" as="geometry" />
        </mxCell>
        <mxCell id="nIAIfp6roelTSrdBB35e-23" value="&lt;font color=&quot;#9673a6&quot; style=&quot;font-size: 18px;&quot; face=&quot;Verdana&quot;&gt;Graph Opt&lt;/font&gt;" style="rounded=1;whiteSpace=wrap;html=1;fontSize=16;fillColor=none;strokeWidth=2;strokeColor=#9673a6;" parent="1" vertex="1">
          <mxGeometry x="440" y="380" width="120" height="60" as="geometry" />
        </mxCell>
        <mxCell id="nIAIfp6roelTSrdBB35e-24" value="&lt;font color=&quot;#82b366&quot; style=&quot;font-size: 18px;&quot; face=&quot;Verdana&quot;&gt;Monitor&lt;/font&gt;" style="rounded=1;whiteSpace=wrap;html=1;fontSize=16;fillColor=none;strokeWidth=2;strokeColor=#82b366;" parent="1" vertex="1">
          <mxGeometry x="440" y="460" width="120" height="60" as="geometry" />
        </mxCell>
        <mxCell id="nIAIfp6roelTSrdBB35e-26" value="" style="endArrow=none;html=1;rounded=1;fontSize=12;startSize=8;endSize=8;strokeWidth=2;edgeStyle=orthogonalEdgeStyle;" parent="1" edge="1">
          <mxGeometry width="50" height="50" relative="1" as="geometry">
            <mxPoint x="580" y="400.0044827586207" as="sourcePoint" />
            <mxPoint x="660" y="440.0044827586207" as="targetPoint" />
            <Array as="points">
              <mxPoint x="580" y="400.0044827586207" />
              <mxPoint x="600" y="400.0044827586207" />
              <mxPoint x="600" y="440.0044827586207" />
            </Array>
          </mxGeometry>
        </mxCell>
        <mxCell id="nIAIfp6roelTSrdBB35e-27" value="" style="endArrow=none;html=1;rounded=1;fontSize=12;startSize=8;endSize=8;strokeWidth=2;edgeStyle=orthogonalEdgeStyle;" parent="1" edge="1">
          <mxGeometry width="50" height="50" relative="1" as="geometry">
            <mxPoint x="580" y="340" as="sourcePoint" />
            <mxPoint x="660" y="300" as="targetPoint" />
            <Array as="points">
              <mxPoint x="580" y="340" />
              <mxPoint x="600" y="340" />
              <mxPoint x="600" y="300" />
            </Array>
          </mxGeometry>
        </mxCell>
        <mxCell id="nIAIfp6roelTSrdBB35e-28" value="&lt;font style=&quot;font-size: 18px;&quot; face=&quot;Verdana&quot;&gt;ecc&lt;/font&gt;" style="rounded=1;whiteSpace=wrap;html=1;fontSize=16;fillColor=none;strokeWidth=2;" parent="1" vertex="1">
          <mxGeometry x="280" y="100" width="120" height="60" as="geometry" />
        </mxCell>
        <mxCell id="nIAIfp6roelTSrdBB35e-30" value="&lt;font style=&quot;font-size: 18px;&quot;&gt;Pruning&lt;/font&gt;" style="text;html=1;strokeColor=none;fillColor=none;align=center;verticalAlign=middle;whiteSpace=wrap;rounded=0;fontSize=16;fontFamily=Verdana;" parent="1" vertex="1">
          <mxGeometry x="610" y="315" width="70" height="30" as="geometry" />
        </mxCell>
        <mxCell id="nIAIfp6roelTSrdBB35e-31" value="&lt;font style=&quot;font-size: 18px;&quot;&gt;Quant&lt;/font&gt;" style="text;html=1;strokeColor=none;fillColor=none;align=center;verticalAlign=middle;whiteSpace=wrap;rounded=0;fontSize=16;fontFamily=Verdana;" parent="1" vertex="1">
          <mxGeometry x="610" y="355" width="70" height="30" as="geometry" />
        </mxCell>
        <mxCell id="nIAIfp6roelTSrdBB35e-33" value="&lt;font style=&quot;font-size: 18px;&quot;&gt;...&lt;/font&gt;" style="text;html=1;strokeColor=none;fillColor=none;align=center;verticalAlign=middle;whiteSpace=wrap;rounded=0;fontSize=16;fontFamily=Verdana;" parent="1" vertex="1">
          <mxGeometry x="610" y="395" width="70" height="30" as="geometry" />
        </mxCell>
        <mxCell id="nIAIfp6roelTSrdBB35e-35" value="&lt;font style=&quot;font-size: 18px;&quot; face=&quot;Verdana&quot;&gt;evm&lt;br&gt;&lt;/font&gt;" style="rounded=1;whiteSpace=wrap;html=1;fontSize=16;fillColor=none;strokeWidth=2;" parent="1" vertex="1">
          <mxGeometry x="120" y="100" width="120" height="60" as="geometry" />
        </mxCell>
      </root>
    </mxGraphModel>
  </diagram>
  <diagram id="TQFkXM4WVxRYu4TPKx9t" name="第 2 页">
    <mxGraphModel dx="790" dy="660" grid="1" gridSize="10" guides="1" tooltips="1" connect="1" arrows="1" fold="1" page="1" pageScale="1" pageWidth="827" pageHeight="1169" math="0" shadow="0">
      <root>
        <mxCell id="0" />
        <mxCell id="1" parent="0" />
        <mxCell id="MnrIst8RILhnYSjqs8Qa-2" value="&lt;font style=&quot;font-size: 18px;&quot; face=&quot;Verdana&quot;&gt;&lt;br&gt;&lt;/font&gt;" style="rounded=1;whiteSpace=wrap;html=1;fontSize=16;strokeWidth=2;arcSize=8;fillColor=none;dashed=1;" parent="1" vertex="1">
          <mxGeometry x="140" y="260" width="160" height="180" as="geometry" />
        </mxCell>
        <mxCell id="MnrIst8RILhnYSjqs8Qa-6" value="&lt;font style=&quot;font-size: 18px;&quot; face=&quot;Verdana&quot;&gt;&lt;br&gt;&lt;/font&gt;" style="rounded=1;whiteSpace=wrap;html=1;fontSize=16;strokeWidth=2;arcSize=8;fillColor=none;dashed=1;" parent="1" vertex="1">
          <mxGeometry x="460" y="260" width="160" height="180" as="geometry" />
        </mxCell>
        <mxCell id="MnrIst8RILhnYSjqs8Qa-1" value="" style="shape=image;verticalLabelPosition=bottom;labelBackgroundColor=default;verticalAlign=top;aspect=fixed;imageAspect=0;image=data:image/svg+xml,PHN2ZyB4bWxucz0iaHR0cDovL3d3dy53My5vcmcvMjAwMC9zdmciIHZlcnNpb249IjEuMSIgaGVpZ2h0PSIxMDI0IiB3aWR0aD0iMTAyNCIgdmlld0JveD0iMCAwIDEwMjQgMTAyNCI+JiN4YTsgPGcgY2xhc3M9ImxheWVyIj4mI3hhOyAgPHRpdGxlPkxheWVyIDE8L3RpdGxlPiYjeGE7ICA8cmVjdCB5PSIzMzIuNCIgeD0iMjkyLjc5IiB3aWR0aD0iMTAuMiIgdHJhbnNmb3JtPSJyb3RhdGUoMjAuNiAyOTcuODkgMzYwLjg2KSIgc3R5bGU9Ii0tZGFya3JlYWRlci1pbmxpbmUtZmlsbDogIzM4M2Q0MTsiIHJ4PSI1LjAxIiBpZD0ic3ZnXzIiIGhlaWdodD0iNTYuOTIiIGZpbGw9IiMzNTQ5NWYiLz4mI3hhOyAgPHJlY3QgeT0iMzM0Ljg4IiB4PSIyNDQuMiIgd2lkdGg9IjkuODQiIHRyYW5zZm9ybT0icm90YXRlKC0wLjIgMjQ5LjEyIDM1NC4xNikiIHN0eWxlPSItLWRhcmtyZWFkZXItaW5saW5lLWZpbGw6ICMzODNkNDE7IiByeD0iNC43OCIgaWQ9InN2Z18zIiBoZWlnaHQ9IjM4LjU2IiBmaWxsPSIjMzU0OTVmIi8+JiN4YTsgIDxyZWN0IHk9IjM4MC4yMyIgeD0iMzExLjUxIiB3aWR0aD0iNTYuMjYiIHRyYW5zZm9ybT0icm90YXRlKC0zNi4xIDMzOS42NCAzODUuNDMpIiBzdHlsZT0iLS1kYXJrcmVhZGVyLWlubGluZS1maWxsOiAjMzgzZDQxOyIgcng9IjUuMTEiIGlkPSJzdmdfNCIgaGVpZ2h0PSIxMC40IiBmaWxsPSIjMzU0OTVmIi8+JiN4YTsgIDxwYXRoIHN0eWxlPSItLWRhcmtyZWFkZXItaW5saW5lLWZpbGw6ICMzODNkNDE7IiBpZD0ic3ZnXzUiIGZpbGw9IiMzNTQ5NWYiIGQ9Im0xNjMuMyw1NTEuOThsMC4wNiwtMTEzbDAuMTUsLTAuN2wwLjcsLTAuNzNsODQuMjQsLTQ2LjEybDAuNzgsLTAuMmwwLjc4LDAuMTlsODUuNDYsNDYuMTVsMC4xNiwwLjA5bDAuNTEsMC41OGwwLjE5LDAuNzZsMC4wNiwxMTIuMDhsLTAuMjMsMC44M2wtMC42MiwwLjZsLTg2LjEzLDQ2LjYzbC0wLjY1LDAuMTlsLTAuOTEsLTAuMTlsLTgzLjcsLTQ1LjczbC0wLjYyLC0wLjZsLTAuMjMsLTAuODN6bTg1Ljg5LC03My4xbDAuMzgsMGw2Ny41NywtMzYuNTVsMC4yLC0wLjMxbC0wLjIxLC0wLjM5bC02Ny43MSwtMzYuMjZsLTAuMzgsMGwtNjYuNjEsMzYuNTRsLTAuMDgsMC4wNmwtMC4xMiwwLjM0bDAuMiwwLjNsNjYuNzYsMzYuMjd6bTYuNTcsMTAuODRsLTAuMTgsMC4zbC0wLjAyLDkxLjE5bDAuMTcsMC4yOWwwLjMzLDAuMDFsMCwwbDAsMGw2Ny43MSwtMzYuNjNsMC4xOCwtMC4zbDAuMDIsLTkxLjJsLTAuMDQsLTAuMTdsLTAuNDYsLTAuMTNsLTY3LjcxLDM2LjY0em0tMTMuMyw5Mi4wOGwwLjI0LDAuMDVsMC4yNywtMC4xM2wwLjExLC0wLjI5bC0wLjE1LC05MS42NmwtMC4yMiwtMC4zN2wtNjYuMzgsLTM1LjlsLTAuNTIsMC4xbC0wLjEsMC4yN2wwLjE1LDkxLjY2bDAuMjIsMC4zN2w2Ni4zOCwzNS45eiIvPiYjeGE7ICA8cGF0aCBzdHlsZT0iLS1kYXJrcmVhZGVyLWlubGluZS1maWxsOiAjMzgzZDQxOyIgaWQ9InN2Z183IiBmaWxsPSIjMzU0OTVmIiBkPSJtNzQ2LjU0LDQzNi43N2w0Ljc1LC0yLjg0bDQuODUsLTIuNDJsNC45NywtMmw1LjA5LC0xLjU4bDAsMGwwLDBsMCwwbDYuNjYsLTEuNDJsNi44NiwtMC43M2w3LjAzLC0wLjA1bDcuMjIsMC42M2w1LjQ0LDEuMDFsNS40NywxLjU3bDUuNDcsMi4xM2w1LjUsMi42OWwzLjgzLDIuMjRsMy42MSwyLjQ1bDQuMjgsMy40MWwzLjk0LDMuNzFsMy42OSw0LjA5bDMuMzQsNC4zNmwzLjA4LDQuNzZsMi43Miw0Ljk5bDIuMzksNS4zMWwyLjAxLDUuNDhsMS42Nyw1Ljc5bDEuMjgsNS45MmwwLjksNi4xbDAuNSw2LjE2bDAuMSw2LjIzbC0wLjMxLDYuMjFsLTAuNyw2LjE2bC0xLjA5LDYuMDdsLTEuMDUsNC4zbC0xLjI4LDQuMTlsLTEuNDksNC4wNmwtMS43MiwzLjk0bC0xLjk1LDMuODZsLTIuMTYsMy43MWwtMi4zNSwzLjU1bC0yLjU1LDMuMzhsLTIuNzUsMy4yM2wtMi45MywzLjA1bC0zLjEsMi44NmwtMy4yNywyLjY2bC0zLjM4LDIuNDNsLTMuNTMsMi4yMWwtMy42OCwybC0zLjgsMS43N2wtNi4zNywyLjM1bC02LjY2LDEuNzFsLTYuNzksMS4wM2wtNy4wMSwwLjM2bC01LjgzLC0wLjJsLTUuNjcsLTAuNjNsLTUuNTksLTEuMDZsLTUuNCwtMS40OGwtNS4yLC0xLjlsLTQuOTcsLTIuM2wtNC43MiwtMi42OWwtNC40NywtMy4wOGwtMy45LC0zLjE4bC0zLjY1LC0zLjVsLTMuMzksLTMuODFsLTMuMTIsLTQuMWwtMi44MiwtNC4zNmwtMi41MiwtNC42NGwtMi4xOCwtNC44MWwtMS44OCwtNS4wN2wtMS44NCwtNi4zM2wtMS4zOCwtNi40OGwtMC45MywtNi42bC0wLjQ2LC02LjY4bDAsLTYuN2wwLjQ4LC02LjY4bDAuOTQsLTYuNTJsMS40LC02LjQybDEuODIsLTYuMTJsMi4yOCwtNS45M2wyLjY2LC01LjYxbDMuMTEsLTUuMzZsMy40MiwtNC45M2wzLjg0LC00LjYzbDQuMTYsLTQuMmw0LjU1LC0zLjg3bDQuNTMsLTMuMjF6bTM1LjI5LDEzMC4xOGwzLjg4LC0wLjA0bDMuNzcsLTAuMjdsMy43NiwtMC41MmwzLjYzLC0wLjc1bDMuNTMsLTAuOThsMy4zOSwtMS4ybDMuMzYsLTEuNDVsMy4yMSwtMS42NmwyLjk1LC0xLjhsMi44MiwtMS45OGwyLjY3LC0yLjE2bDIuNTMsLTIuMzNsMi40MiwtMi41M2wyLjI2LC0yLjY5bDIuMSwtMi44NGwxLjk0LC0yLjk5bDEuNzgsLTMuMTNsMS42MSwtMy4yN2wxLjQzLC0zLjM4bDEuMjUsLTMuNWwxLjA3LC0zLjYxbDAuODksLTMuN2wwLjY5LC0zLjc5bDAuNTEsLTMuODhsMC40NywtNi44MmwtMC4wNCwtNi42MWwtMC41NCwtNi41NWwtMS4wNCwtNi4yNmwtMS41MywtNi4wNWwtMiwtNS43bC0yLjUyLC01LjUxbC0yLjk1LC01LjEzbC0yLjA2LC0zLjAybC0yLjIzLC0yLjg0bC0yLjM3LC0yLjY3bC0yLjUyLC0yLjQ4bC0yLjY1LC0yLjNsLTIuNzksLTIuMTJsLTIuOTEsLTEuOTFsLTMuMDMsLTEuNzJsLTUuNjUsLTIuNTVsLTUuOTYsLTEuODhsLTYuMTUsLTEuMThsLTYuMzgsLTAuNDhsLTYuNCwwLjIybC02LjE5LDAuOTNsLTYuMDQsMS42NGwtNS43NSwyLjMybC0zLjA5LDEuNTlsLTIuOTksMS44bC0yLjg3LDJsLTIuNzUsMi4xOWwtMi42MSwyLjM4bC0yLjQ4LDIuNTdsLTIuMzMsMi43NWwtMi4xOSwyLjkzbC0zLjE2LDVsLTIuNzQsNS40MWwtMi4yMiw1LjYybC0xLjc4LDUuOThsLTEuMjksNi4yMWwtMC44LDYuNTJsLTAuMzEsNi42bDAuMTksNi44NGwwLjM1LDMuODlsMC41NCwzLjgybDAuNzQsMy43NGwwLjkyLDMuNjRsMS4xMSwzLjU1bDEuMywzLjQ0bDEuNDcsMy4zM2wxLjY1LDMuMmwxLjgxLDMuMDZsMS45OSwyLjkzbDIuMTUsMi43OGwyLjMxLDIuNjJsMi40MywyLjQzbDIuNTksMi4yN2wyLjczLDIuMDlsMi44OCwxLjkybDMuMTQsMS43OWwzLjMsMS41OWwzLjM0LDEuMzNsMy40OCwxLjEybDMuNjEsMC45bDMuNzMsMC42N2wzLjc2LDAuNDNsMy44NywwLjE5eiIvPiYjeGE7ICA8cGF0aCBzdHlsZT0iLS1kYXJrcmVhZGVyLWlubGluZS1maWxsOiAjMzgzZDQxOyIgaWQ9InN2Z184IiBmaWxsPSIjMzU0OTVmIiBkPSJtNDA1Ljc4LDUxMS4xMWwtMC41OCwwLjQ5bC0wLjE2LDAuNzVsMC45NSw1Ljc2bDEuNCw1LjU2bDEuODUsNS4zMmwyLjI4LDUuMDZsMi43MSw0Ljc5bDMuMTMsNC40OGwzLjUyLDQuMTVsMy45MiwzLjc5bDQuMzMsMy40NGw0LjY5LDMuMDNsNC45NywyLjU1bDUuMzEsMi4xMmw1LjE0LDEuNThsNS4xNiwxLjJsNS4xNywwLjgybDUuMiwwLjQzbDAsMGwwLDBsMCwwbDAsMGw0LjIzLDAuMDdsNC4yNCwtMC4xOGw0LjI1LC0wLjQzbDQuMjYsLTAuNjhsNi4wMywtMS40MWw1Ljc0LC0xLjlsNS40MywtMi4zN2w1LjEzLC0yLjg2bDAsMGw0LjcxLC0zLjI2bDQuNDMsLTMuNzJsNC4xNSwtNC4xOGwzLjg1LC00LjY0bDAuNzUsLTAuNTlsMC45MywtMC4xNWwzLjIsMC43NGwzLjAxLDEuMzJsMS4wMywwLjcxbDAuODIsMC44bDAuNTEsMC44bDAuMjMsMC44OGwtMC4xLDAuOTZsLTAuNDgsMS4wNGwtMy40OCw0Ljc4bC00LjE2LDQuNTdsLTUuOTgsNS40NGwtNi4yOCw0LjdsLTYuNTgsMy45NmwtMy40LDEuN2wtMy40OCwxLjUxbDAsMGwwLDBsLTYuMjEsMi4xOGwtNi40NCwxLjYybC02LjY3LDEuMDVsLTYuODksMC41bC03Ljc2LC0wLjA5bC03LjY4LC0wLjc1bC03LjQ1LC0xLjQxbC03LjI3LC0yLjA3bC02Ljg0LC0yLjY1bC02LjU2LC0zLjNsLTYuMTYsLTMuOWwtNS42MywtNC40bC0xLjg4LC0xLjY5bC0zLjk4LC00LjA1bC0zLjU5LC00LjMzbC0zLjI3LC00LjY3bC0yLjg3LC00LjkxbC0yLjUyLC01LjI2bC0yLjEsLTUuNDNsLTEuNzEsLTUuNjlsLTEuMjcsLTUuOGwtMC44NCwtNi4wMWwtMC40LC02LjA3bDAuMDQsLTYuMDhsMC40OSwtNi4wN2wwLjkzLC02LjAybDEuMzcsLTUuOTNsMS43NywtNS43MmwyLjE5LC01LjU2bDIuNTUsLTUuMjhsMi44OSwtNC45OWwzLjIyLC00LjdsMy41NiwtNC40bDAsMGw0LjczLC00LjlsNS4yMSwtNC40OGw1LjcsLTQuMDVsNi4xOSwtMy42Mmw0LjA0LC0xLjk5bDQuMTQsLTEuNzVsNC4yMSwtMS41MWw0LjI3LC0xLjI2bDQuMzksLTEuMDNsNC40MywtMC43N2w0LjQ2LC0wLjUzbDQuNDcsLTAuMjdsNC40OCwtMC4wM2w0LjQ3LDAuMjNsNC40NSwwLjQ5bDQuNDIsMC43M2w0LjMyLDAuOTdsNC4yNywxLjIybDQuMiwxLjQ3bDQuMTIsMS43MWw1LjEsMi41M2w0Ljc3LDIuODVsNC41NCwzLjIybDQuMjEsMy41MmwyLjg3LDIuNzVsMi42OSwyLjg5bDIuNTcsMy4xbDIuMzksMy4yNGwyLjIsMy4zNmwyLjAyLDMuNDhsMS44OCwzLjY5bDEuNjksMy43OWwxLjUyLDMuOTVsMS4zMiw0LjA1bDEuMTIsNC4xM2wwLjkzLDQuMjJsMC43NSw0LjM0bDAuNTQsNC40bDAuNSw4Ljk2bC0wLjA3LDIuMjFsLTAuMjcsMS44bC0wLjI3LDAuNjVsLTAuNDcsMC41M2wtMC42MiwwLjM0bC0wLjcsMC4xMWwtOTYuOTQsLTAuMTJsLTM4Ljc1LDAuMWwtMS40OSwwLjIzem0yMS40MiwtNTcuMWwtMy40MSwzLjEzbC0zLjE1LDMuMzFsLTIuODcsMy40OWwtMi42LDMuNjdsMCwwbDAsMGwtMy4xNiw1LjRsLTIuNjMsNS43NGwtMi4xMSw2LjA5bC0xLjU4LDYuNDNsLTAuNSwzLjIybC0wLjE5LDMuMDJsMC4yLDAuNTFsMC41MSwwLjIxbDAsMGwwLDBsMTI0LjUzLDAuMDFsMCwwbDAuNzMsLTAuMTVsMC42MiwtMC40MWwwLjQxLC0wLjYybDAuMTQsLTAuNzNsLTAuMjcsLTMuMjhsLTAuODEsLTQuMjlsLTAuMzEsLTEuNTFsLTEuNTgsLTYuMjdsLTIuMTMsLTUuODdsLTIuNjgsLTUuNDlsLTMuMjIsLTUuMWwtMy4wOCwtMy45MWwtMy40NCwtMy42NWwtMy44MywtMy4zOGwtNC4xOSwtMy4xMmwtNC40OCwtMi43OGwtNC42OSwtMi4zOWwtNC45NywtMi4wNGwtNS4xMywtMS42NGwtNS4yOCwtMS4yM2wtNS4zOCwtMC44MWwtNS40MiwtMC40bC01LjQ0LDAuMDNsLTUuMzksMC40NWwtNS4zMywwLjg4bC01LjE1LDEuMjhsLTUuMDQsMS43bC00Ljc2LDIuMDZsLTQuNTgsMi40NmwtNC4yOSwyLjc5bC00LjA3LDMuMTl6Ii8+JiN4YTsgIDxwYXRoIGlkPSJzdmdfOSIgZmlsbD0iIzM1NDk1ZiIgZD0ibTYyNC4wNCw1NTcuMzFsMS4yMiwtMi4wMWw1OC42LC0xMjMuMzNsMC40NCwtMC42OGwwLjYsLTAuNTRsMC43MSwtMC4zNmwwLjc5LC0wLjE3bDUuMDIsLTAuMThsNS40OCwwLjI0bDAuOCwwLjI2bDAuNTcsMC41OWwwLjA4LDAuNTlsLTAuMjksMC44NGwtNTAuNDIsMTAzLjU3bC05LjYxLDIwLjA4bC05LjMxLDIwLjAzbC0wLjc3LDEuMjFsLTEsMC43NWwwLDBsLTAuNDIsMC4xNWwtMi4zOSwwLjQ1bC0yLjIsLTAuMDNsLTEuNzIsLTAuNDlsLTEuMjQsLTAuOTFsLTAuNjMsLTAuOTRsLTU5LjkyLC0xMjUuNTNsLTcuNTQsLTE1Ljc3bC0xLjExLC0yLjg1bC0wLjAyLC0wLjFsMC4wMiwtMC42NGwwLjI3LC0wLjU5bDAuNDgsLTAuNDNsMC42MiwtMC4ybDQuMywtMC4yOGw1LjAzLDAuMDNsMS4wMywwLjE1bDAuODcsMC4zNGwxLjE2LDAuOTdsMC45NSwxLjU1bDI2LjgxLDU3Ljk0bDI5LjI3LDYxLjY0bDIuNTEsNC42MWwwLjQxLDAuMjhsMC40NywtMC4xNGwwLjA4LC0wLjF6Ii8+JiN4YTsgPC9nPiYjeGE7PC9zdmc+;" parent="1" vertex="1">
          <mxGeometry x="140" y="320" width="160" height="160" as="geometry" />
        </mxCell>
        <mxCell id="hAKDBUuKWpPip_iFGP8q-1" style="edgeStyle=none;curved=1;rounded=0;orthogonalLoop=1;jettySize=auto;html=1;exitX=1;exitY=0.25;exitDx=0;exitDy=0;entryX=0;entryY=0.25;entryDx=0;entryDy=0;fontSize=12;startSize=8;endSize=8;strokeWidth=2;endArrow=blockThin;endFill=1;" parent="1" source="clOE9fBUpDHo576x0Uga-1" target="clOE9fBUpDHo576x0Uga-2" edge="1">
          <mxGeometry relative="1" as="geometry" />
        </mxCell>
        <mxCell id="clOE9fBUpDHo576x0Uga-1" value="&lt;font style=&quot;font-size: 18px;&quot; face=&quot;Verdana&quot;&gt;EDB&lt;br&gt;Server&lt;br&gt;&lt;/font&gt;" style="rounded=1;whiteSpace=wrap;html=1;fontSize=16;fillColor=none;strokeWidth=2;" parent="1" vertex="1">
          <mxGeometry x="160" y="280" width="120" height="80" as="geometry" />
        </mxCell>
        <mxCell id="hAKDBUuKWpPip_iFGP8q-2" style="edgeStyle=none;curved=1;rounded=0;orthogonalLoop=1;jettySize=auto;html=1;exitX=0;exitY=0.75;exitDx=0;exitDy=0;entryX=1;entryY=0.75;entryDx=0;entryDy=0;fontSize=12;startSize=8;endSize=8;strokeWidth=2;endArrow=blockThin;endFill=1;" parent="1" source="clOE9fBUpDHo576x0Uga-2" target="clOE9fBUpDHo576x0Uga-1" edge="1">
          <mxGeometry relative="1" as="geometry" />
        </mxCell>
        <mxCell id="MnrIst8RILhnYSjqs8Qa-11" style="edgeStyle=none;curved=1;rounded=0;orthogonalLoop=1;jettySize=auto;html=1;exitX=0.5;exitY=1;exitDx=0;exitDy=0;entryX=0.5;entryY=0;entryDx=0;entryDy=0;fontSize=12;startSize=8;endSize=8;strokeWidth=2;endArrow=blockThin;endFill=1;" parent="1" source="clOE9fBUpDHo576x0Uga-2" target="MnrIst8RILhnYSjqs8Qa-5" edge="1">
          <mxGeometry relative="1" as="geometry" />
        </mxCell>
        <mxCell id="clOE9fBUpDHo576x0Uga-2" value="&lt;font style=&quot;font-size: 18px;&quot; face=&quot;Verdana&quot;&gt;EDB&lt;br&gt;Client&lt;br&gt;&lt;/font&gt;" style="rounded=1;whiteSpace=wrap;html=1;fontSize=16;fillColor=none;strokeWidth=2;" parent="1" vertex="1">
          <mxGeometry x="480" y="280" width="120" height="80" as="geometry" />
        </mxCell>
        <mxCell id="yDveq1yf3U3m1nZQv1xa-1" value="&lt;font style=&quot;font-size: 18px;&quot;&gt;Op/Data/Perf&lt;/font&gt;" style="text;html=1;strokeColor=none;fillColor=none;align=center;verticalAlign=middle;whiteSpace=wrap;rounded=0;fontSize=16;fontFamily=Verdana;" parent="1" vertex="1">
          <mxGeometry x="320" y="268" width="126" height="30" as="geometry" />
        </mxCell>
        <mxCell id="yDveq1yf3U3m1nZQv1xa-2" value="&lt;span style=&quot;font-size: 18px;&quot;&gt;Cmd&lt;/span&gt;" style="text;html=1;strokeColor=none;fillColor=none;align=center;verticalAlign=middle;whiteSpace=wrap;rounded=0;fontSize=16;fontFamily=Verdana;" parent="1" vertex="1">
          <mxGeometry x="320" y="342" width="126" height="30" as="geometry" />
        </mxCell>
        <mxCell id="MnrIst8RILhnYSjqs8Qa-4" value="&lt;font color=&quot;#e11428&quot; style=&quot;font-size: 10px;&quot;&gt;Port: 0xd1ff&lt;/font&gt;" style="text;html=1;strokeColor=none;fillColor=none;align=center;verticalAlign=middle;whiteSpace=wrap;rounded=0;fontSize=16;fontFamily=Verdana;" parent="1" vertex="1">
          <mxGeometry x="182" y="330" width="76" height="30" as="geometry" />
        </mxCell>
        <mxCell id="MnrIst8RILhnYSjqs8Qa-10" style="edgeStyle=orthogonalEdgeStyle;rounded=0;orthogonalLoop=1;jettySize=auto;html=1;exitX=0;exitY=0.5;exitDx=0;exitDy=0;entryX=1;entryY=0.5;entryDx=0;entryDy=0;fontSize=12;startSize=8;endSize=8;strokeWidth=2;endArrow=blockThin;endFill=1;" parent="1" source="MnrIst8RILhnYSjqs8Qa-5" target="MnrIst8RILhnYSjqs8Qa-9" edge="1">
          <mxGeometry relative="1" as="geometry" />
        </mxCell>
        <mxCell id="MnrIst8RILhnYSjqs8Qa-5" value="&lt;font style=&quot;font-size: 18px;&quot; face=&quot;Verdana&quot;&gt;Diff Test&lt;br&gt;&lt;/font&gt;" style="rounded=1;whiteSpace=wrap;html=1;fontSize=16;fillColor=none;strokeWidth=2;" parent="1" vertex="1">
          <mxGeometry x="480" y="380" width="120" height="40" as="geometry" />
        </mxCell>
        <mxCell id="MnrIst8RILhnYSjqs8Qa-12" style="edgeStyle=none;curved=1;rounded=0;orthogonalLoop=1;jettySize=auto;html=1;exitX=0.5;exitY=1;exitDx=0;exitDy=0;fontSize=12;startSize=8;endSize=8;strokeWidth=2;endArrow=blockThin;endFill=1;" parent="1" source="MnrIst8RILhnYSjqs8Qa-7" target="clOE9fBUpDHo576x0Uga-2" edge="1">
          <mxGeometry relative="1" as="geometry" />
        </mxCell>
        <mxCell id="MnrIst8RILhnYSjqs8Qa-7" value="&lt;font style=&quot;font-size: 18px;&quot;&gt;verilog&lt;br&gt;chisel&lt;/font&gt;" style="rounded=1;whiteSpace=wrap;html=1;fontSize=16;fillColor=none;strokeWidth=2;" parent="1" vertex="1">
          <mxGeometry x="495" y="160" width="90" height="60" as="geometry" />
        </mxCell>
        <mxCell id="MnrIst8RILhnYSjqs8Qa-9" value="&lt;font style=&quot;font-size: 18px;&quot; face=&quot;Verdana&quot;&gt;Report&lt;br&gt;&lt;/font&gt;" style="rounded=1;whiteSpace=wrap;html=1;fontSize=16;fillColor=none;strokeWidth=2;" parent="1" vertex="1">
          <mxGeometry x="320" y="400" width="120" height="40" as="geometry" />
        </mxCell>
        <mxCell id="MnrIst8RILhnYSjqs8Qa-13" value="&lt;font style=&quot;font-size: 18px;&quot;&gt;DPI-C&lt;/font&gt;" style="text;html=1;strokeColor=none;fillColor=none;align=center;verticalAlign=middle;whiteSpace=wrap;rounded=0;fontSize=16;fontFamily=Verdana;" parent="1" vertex="1">
          <mxGeometry x="530" y="230" width="100" height="30" as="geometry" />
        </mxCell>
        <mxCell id="MnrIst8RILhnYSjqs8Qa-16" style="edgeStyle=none;curved=1;rounded=0;orthogonalLoop=1;jettySize=auto;html=1;exitX=0.5;exitY=1;exitDx=0;exitDy=0;fontSize=12;startSize=8;endSize=8;strokeWidth=2;endArrow=blockThin;endFill=1;" parent="1" source="MnrIst8RILhnYSjqs8Qa-14" target="clOE9fBUpDHo576x0Uga-1" edge="1">
          <mxGeometry relative="1" as="geometry" />
        </mxCell>
        <mxCell id="MnrIst8RILhnYSjqs8Qa-14" value="&lt;span style=&quot;font-size: 18px;&quot;&gt;Bench&lt;br&gt;&lt;/span&gt;Mark" style="rounded=1;whiteSpace=wrap;html=1;fontSize=16;fillColor=none;strokeWidth=2;" parent="1" vertex="1">
          <mxGeometry x="175" y="160" width="90" height="60" as="geometry" />
        </mxCell>
        <mxCell id="MnrIst8RILhnYSjqs8Qa-17" value="&lt;font style=&quot;font-size: 18px;&quot;&gt;Load&lt;/font&gt;" style="text;html=1;strokeColor=none;fillColor=none;align=center;verticalAlign=middle;whiteSpace=wrap;rounded=0;fontSize=16;fontFamily=Verdana;" parent="1" vertex="1">
          <mxGeometry x="150" y="230" width="70" height="30" as="geometry" />
        </mxCell>
        <mxCell id="MnrIst8RILhnYSjqs8Qa-20" value="&lt;font color=&quot;#e11428&quot; style=&quot;font-size: 10px;&quot;&gt;[Socket / Local]&lt;/font&gt;" style="text;html=1;strokeColor=none;fillColor=none;align=center;verticalAlign=middle;whiteSpace=wrap;rounded=0;fontSize=16;fontFamily=Verdana;" parent="1" vertex="1">
          <mxGeometry x="332.5" y="301" width="95" height="30" as="geometry" />
        </mxCell>
      </root>
    </mxGraphModel>
  </diagram>
  <diagram id="k3F1OJb__5HGuxTdbeFi" name="第 3 页">
    <mxGraphModel dx="1204" dy="674" grid="1" gridSize="10" guides="1" tooltips="1" connect="1" arrows="1" fold="1" page="0" pageScale="1" pageWidth="827" pageHeight="1169" math="0" shadow="0">
      <root>
        <mxCell id="0" />
        <mxCell id="1" parent="0" />
        <mxCell id="LCnB2QFgcxVXVbwMSuy1-1" value="" style="whiteSpace=wrap;html=1;aspect=fixed;fontSize=16;strokeWidth=2;" vertex="1" parent="1">
          <mxGeometry x="-80" y="200" width="80" height="80" as="geometry" />
        </mxCell>
        <mxCell id="LCnB2QFgcxVXVbwMSuy1-2" value="" style="whiteSpace=wrap;html=1;aspect=fixed;fontSize=16;strokeWidth=2;" vertex="1" parent="1">
          <mxGeometry x="-70" y="210" width="80" height="80" as="geometry" />
        </mxCell>
        <mxCell id="LCnB2QFgcxVXVbwMSuy1-3" value="" style="whiteSpace=wrap;html=1;aspect=fixed;fontSize=16;strokeWidth=2;" vertex="1" parent="1">
          <mxGeometry x="-60" y="220" width="80" height="80" as="geometry" />
        </mxCell>
        <mxCell id="LCnB2QFgcxVXVbwMSuy1-4" value="" style="whiteSpace=wrap;html=1;aspect=fixed;fontSize=16;strokeWidth=2;" vertex="1" parent="1">
          <mxGeometry x="-50" y="230" width="80" height="80" as="geometry" />
        </mxCell>
        <mxCell id="LCnB2QFgcxVXVbwMSuy1-5" value="" style="whiteSpace=wrap;html=1;aspect=fixed;fontSize=16;strokeWidth=2;" vertex="1" parent="1">
          <mxGeometry x="-320" y="200" width="120" height="120" as="geometry" />
        </mxCell>
        <mxCell id="LCnB2QFgcxVXVbwMSuy1-6" value="" style="whiteSpace=wrap;html=1;aspect=fixed;fontSize=16;strokeWidth=2;" vertex="1" parent="1">
          <mxGeometry x="-40" y="240" width="80" height="80" as="geometry" />
        </mxCell>
        <mxCell id="SIn-8q6A1_2FSnqoJWPC-1" value="&lt;font style=&quot;font-size: 18px;&quot; face=&quot;Verdana&quot;&gt;Conv&lt;br&gt;&lt;/font&gt;" style="rounded=1;whiteSpace=wrap;html=1;fontSize=16;fillColor=none;strokeWidth=2;direction=south;" vertex="1" parent="1">
          <mxGeometry x="110" y="200" width="60" height="120" as="geometry" />
        </mxCell>
      </root>
    </mxGraphModel>
  </diagram>
</mxfile>
